<svg xmlns="http://www.w3.org/2000/svg" viewBox="0 0 340 210" width="340" height="210" role="img"><rect width="340" height="210" fill="#fff"/><rect x="18" y="18" width="200" height="120" rx="3" fill="#F1F3EE" stroke="#16232B" stroke-width="2"/><rect x="18" y="18" width="200" height="14" fill="#16232B"/><circle cx="27" cy="25" r="3" fill="#fff" opacity=".6"/><circle cx="38" cy="25" r="3" fill="#fff" opacity=".6"/><rect x="34" y="42" width="64" height="34" rx="2" fill="#fff" stroke="#C7D0C8" stroke-width="1.6"/><rect x="40" y="48" width="26" height="4" rx="2" fill="#4A3A8C"/><rect x="40" y="57" width="50" height="3" rx="1.5" fill="#C7D0C8"/><rect x="40" y="64" width="38" height="3" rx="1.5" fill="#C7D0C8"/><rect x="108" y="42" width="64" height="34" rx="2" fill="#fff" stroke="#4A3A8C" stroke-width="2.5"/><rect x="114" y="48" width="26" height="4" rx="2" fill="#4A3A8C"/><rect x="114" y="57" width="50" height="3" rx="1.5" fill="#C7D0C8"/><rect x="114" y="64" width="38" height="3" rx="1.5" fill="#C7D0C8"/><rect x="34" y="86" width="64" height="34" rx="2" fill="#fff" stroke="#C7D0C8" stroke-width="1.6"/><rect x="40" y="92" width="26" height="4" rx="2" fill="#4A3A8C"/><rect x="40" y="101" width="50" height="3" rx="1.5" fill="#C7D0C8"/><rect x="40" y="108" width="38" height="3" rx="1.5" fill="#C7D0C8"/><rect x="108" y="86" width="64" height="34" rx="2" fill="#fff" stroke="#C7D0C8" stroke-width="1.6"/><rect x="114" y="92" width="26" height="4" rx="2" fill="#4A3A8C"/><rect x="114" y="101" width="50" height="3" rx="1.5" fill="#C7D0C8"/><rect x="114" y="108" width="38" height="3" rx="1.5" fill="#C7D0C8"/><g transform="translate(104,74)"><path d="M0 0 L0 17 L4.6 12.8 L7.6 19.5 L11 18 L8 11.4 L14 11 Z" fill="#fff" stroke="#16232B" stroke-width="1.6"/></g><g transform="translate(252,150)"><circle cx="0" cy="-42" r="7" fill="none" stroke="#16232B" stroke-width="3"/><path d="M0 -35 L0 0" stroke="#16232B" stroke-width="3" stroke-linecap="round"/><path d="M0 -22 L20 -10" stroke="#16232B" stroke-width="3" fill="none" stroke-linecap="round"/></g><rect x="271" y="138" width="15" height="22" rx="7.5" fill="#F1F3EE" stroke="#16232B" stroke-width="2"/><path d="M278.5 141 L278.5 147" stroke="#16232B" stroke-width="2"/></svg>