<svg xmlns="http://www.w3.org/2000/svg" viewBox="0 0 340 210" width="340" height="210" role="img"><rect width="340" height="210" fill="#fff"/><rect x="14" y="14" width="214" height="152" rx="3" fill="#F1F3EE" stroke="#16232B" stroke-width="2"/><rect x="14" y="14" width="214" height="14" fill="#16232B"/><circle cx="23" cy="21" r="3" fill="#fff" opacity=".6"/><circle cx="34" cy="21" r="3" fill="#fff" opacity=".6"/><rect x="24" y="30" width="140" height="8" rx="4" fill="#C7D0C8"/><rect x="24" y="48" width="176" height="46" rx="3" fill="#fff" stroke="#4A3A8C" stroke-width="2.4"/><rect x="32" y="56" width="150" height="5" rx="2.5" fill="#68776F"/><rect x="32" y="68" width="160" height="5" rx="2.5" fill="#68776F"/><rect x="32" y="80" width="96" height="5" rx="2.5" fill="#68776F"/><rect x="150" y="100" width="66" height="18" rx="9" fill="#16232B"/><text x="183" y="113" text-anchor="middle" font-family="Helvetica" font-size="10" fill="#fff">invia</text><g transform="translate(30,104)"><rect x="0" y="0" width="34" height="42" rx="2" fill="#fff" stroke="#16232B" stroke-width="2"/><rect x="5" y="7" width="24" height="4" rx="2" fill="#C7D0C8"/><rect x="5" y="15" width="24" height="4" rx="2" fill="#C7D0C8"/><rect x="5" y="23" width="14" height="4" rx="2" fill="#C7D0C8"/><path d="M17 31 L17 39 M12 35 L17 40 L22 35" stroke="#4A3A8C" stroke-width="2.4" fill="none" stroke-linecap="round" stroke-linejoin="round"/></g><g transform="translate(256,150)"><circle cx="0" cy="-42" r="7" fill="none" stroke="#16232B" stroke-width="3"/><path d="M0 -35 L0 0" stroke="#16232B" stroke-width="3" stroke-linecap="round"/><path d="M0 -22 L22 -8" stroke="#16232B" stroke-width="3" fill="none" stroke-linecap="round"/></g><rect x="274" y="140" width="46" height="18" rx="2" fill="#F1F3EE" stroke="#16232B" stroke-width="2"/><rect x="278.0" y="143.5" width="4.6" height="4" rx="1" fill="#C7D0C8"/><rect x="284.6" y="143.5" width="4.6" height="4" rx="1" fill="#C7D0C8"/><rect x="291.2" y="143.5" width="4.6" height="4" rx="1" fill="#C7D0C8"/><rect x="297.8" y="143.5" width="4.6" height="4" rx="1" fill="#C7D0C8"/><rect x="304.4" y="143.5" width="4.6" height="4" rx="1" fill="#C7D0C8"/><rect x="311.0" y="143.5" width="4.6" height="4" rx="1" fill="#C7D0C8"/><rect x="278.0" y="149.5" width="4.6" height="4" rx="1" fill="#C7D0C8"/><rect x="284.6" y="149.5" width="4.6" height="4" rx="1" fill="#C7D0C8"/><rect x="291.2" y="149.5" width="4.6" height="4" rx="1" fill="#C7D0C8"/><rect x="297.8" y="149.5" width="4.6" height="4" rx="1" fill="#C7D0C8"/><rect x="304.4" y="149.5" width="4.6" height="4" rx="1" fill="#C7D0C8"/><rect x="311.0" y="149.5" width="4.6" height="4" rx="1" fill="#C7D0C8"/></svg>