<svg xmlns="http://www.w3.org/2000/svg" viewBox="0 0 460 400" width="460" height="400" role="img">
<rect width="460" height="400" fill="#fff"/>
<rect x="15" y="11" width="430" height="266" rx="17" fill="#fff" stroke="#16232B" stroke-width="9"/>
<rect x="24" y="20" width="412" height="216" fill="#F1F3EE"/>
<text x="45" y="53" font-family="Helvetica, Arial, sans-serif" font-size="15" fill="#4A3A8C" font-weight="bold" text-anchor="start">Mese e anno del file</text><rect x="45" y="61" width="370" height="32" rx="3" fill="#fff" stroke="#C7D0C8" stroke-width="2"/><text x="55" y="82" font-family="'IBM Plex Mono', 'DejaVu Sans Mono', monospace" font-size="15" fill="#68776F" font-weight="normal" text-anchor="start">novembre 2026</text><text x="45" y="117" font-family="Helvetica, Arial, sans-serif" font-size="15" fill="#4A3A8C" font-weight="bold" text-anchor="start">Attività da coprire</text><rect x="45" y="125" width="370" height="32" rx="3" fill="#fff" stroke="#4A3A8C" stroke-width="3.4"/><text x="55" y="146" font-family="'IBM Plex Mono', 'DejaVu Sans Mono', monospace" font-size="15" fill="#68776F" font-weight="normal" text-anchor="start">STANZA 23 - 2 turni: MAT, PO</text><rect x="307" y="132" width="3" height="19" fill="#16232B"/><text x="45" y="181" font-family="Helvetica, Arial, sans-serif" font-size="15" fill="#4A3A8C" font-weight="bold" text-anchor="start">Nomi delle persone</text><rect x="45" y="189" width="370" height="32" rx="3" fill="#fff" stroke="#C7D0C8" stroke-width="2"/>
<line x1="20" y1="236" x2="440" y2="236" stroke="#16232B" stroke-width="7"/>
<path d="M196 281 L264 281 L272 320 L188 320 Z" fill="#fff" stroke="#16232B" stroke-width="7" stroke-linejoin="round"/>
<rect x="142" y="316" width="176" height="16" rx="8" fill="#fff" stroke="#16232B" stroke-width="7"/>
<rect x="50" y="340" width="360" height="46" rx="9" fill="#fff" stroke="#16232B" stroke-width="7"/>
<rect x="72" y="352" width="24" height="6" rx="3" fill="#16232B"/><rect x="105" y="352" width="24" height="6" rx="3" fill="#16232B"/><rect x="138" y="352" width="24" height="6" rx="3" fill="#16232B"/><rect x="171" y="352" width="24" height="6" rx="3" fill="#16232B"/><rect x="204" y="352" width="24" height="6" rx="3" fill="#16232B"/><rect x="237" y="352" width="24" height="6" rx="3" fill="#16232B"/><rect x="270" y="352" width="24" height="6" rx="3" fill="#16232B"/><rect x="303" y="352" width="24" height="6" rx="3" fill="#16232B"/><rect x="336" y="352" width="24" height="6" rx="3" fill="#16232B"/><rect x="369" y="352" width="24" height="6" rx="3" fill="#16232B"/><rect x="72" y="364" width="24" height="6" rx="3" fill="#16232B"/><rect x="105" y="364" width="24" height="6" rx="3" fill="#16232B"/><rect x="138" y="364" width="24" height="6" rx="3" fill="#16232B"/><rect x="171" y="364" width="24" height="6" rx="3" fill="#16232B"/><rect x="204" y="364" width="24" height="6" rx="3" fill="#16232B"/><rect x="237" y="364" width="24" height="6" rx="3" fill="#16232B"/><rect x="270" y="364" width="24" height="6" rx="3" fill="#16232B"/><rect x="303" y="364" width="24" height="6" rx="3" fill="#16232B"/><rect x="336" y="364" width="24" height="6" rx="3" fill="#16232B"/><rect x="369" y="364" width="24" height="6" rx="3" fill="#16232B"/><rect x="72" y="376" width="24" height="6" rx="3" fill="#16232B"/><rect x="105" y="376" width="24" height="6" rx="3" fill="#16232B"/><rect x="138" y="376" width="24" height="6" rx="3" fill="#16232B"/><rect x="171" y="376" width="104" height="6" rx="3" fill="#16232B"/><rect x="284" y="376" width="24" height="6" rx="3" fill="#16232B"/><rect x="317" y="376" width="24" height="6" rx="3" fill="#16232B"/><rect x="350" y="376" width="24" height="6" rx="3" fill="#16232B"/><rect x="383" y="376" width="24" height="6" rx="3" fill="#16232B"/>
</svg>